Coordinates
version=1
nRows=17
nColumns=24
inDegrees=yes

Units are S.I. units (second, meters, Newtons, ...)
Angles are in degrees.

endheader
time	pelvis_tilt	pelvis_list	pelvis_rotation	pelvis_tx	pelvis_ty	pelvis_tz	hip_flexion_r	hip_adduction_r	hip_rotation_r	knee_angle_r	ankle_angle_r	subtalar_angle_r	mtp_angle_r	hip_flexion_l	hip_adduction_l	hip_rotation_l	knee_angle_l	ankle_angle_l	subtalar_angle_l	mtp_angle_l	lumbar_extension	lumbar_bending	lumbar_rotation
     14.59000000	     -0.90316012	      3.33960421	      8.26667360	     -0.03361540	      0.88424629	      0.00470980	     -8.79612263	     -3.55071562	    -14.37463394	    -74.77096575	    -17.35975220	     -6.04894217	      0.00000000	     22.76204580	     11.94129033	      4.12950549	    -32.58585380	     13.92030800	     -4.80267840	      0.00000000	    -12.39829633	     -2.94336180	     -0.40738837
     14.60000000	     -0.45240396	      3.43791149	      8.90782059	     -0.03647245	      0.87662413	      0.00297701	     -7.74832155	     -4.45707511	    -15.43520007	    -78.83261331	    -15.34064094	     -7.13473282	      0.00000000	     23.93556654	     12.19599502	      3.34104715	    -38.50560600	     18.32439117	     -2.78497361	      0.00000000	    -13.38741548	     -2.95461365	     -1.94081147
     14.61000000	      0.38369569	      3.20435868	      9.41749845	     -0.03906132	      0.87152778	      0.00293948	     -6.87570136	     -4.37343749	    -16.03857679	    -82.21280569	    -13.51117090	     -9.10944544	      0.00000000	     23.97212249	     11.78200576	      3.03479821	    -43.21748989	     22.60792572	     -0.24800302	      0.00000000	    -14.90191860	     -2.55243769	     -3.26642369
     14.62000000	      1.06472710	      3.37802672	      9.56565603	     -0.04084352	      0.86728583	      0.00292044	     -5.94045804	     -5.05190472	    -16.36599626	    -85.14127911	    -11.29525548	    -10.05037734	      0.00000000	     23.23034524	     11.73359209	      2.90499851	    -46.26492646	     25.51462591	      0.86352809	      0.00000000	    -16.17712319	     -2.60618871	     -4.25869239
     14.63000000	      1.34384232	      3.50230754	      9.38434461	     -0.04250710	      0.86358959	      0.00346058	     -4.33248950	     -5.68638652	    -16.23536194	    -87.80629714	     -8.86042756	    -10.91626731	      0.00000000	     22.29751051	     11.59512103	      2.74932816	    -48.14958942	     27.82597036	      1.47103859	      0.00000000	    -16.85029326	     -2.83849156	     -4.82705511
     14.64000000	      1.18898580	      3.36017664	      9.00564088	     -0.04400424	      0.86056519	      0.00445753	     -2.05559501	     -5.94107615	    -15.81477751	    -90.00619538	     -6.63762466	    -11.82816810	      0.00000000	     21.35950719	     11.18291713	      2.64566302	    -49.06979393	     29.70969791	      1.66048249	      0.00000000	    -16.87973033	     -2.93404767	     -5.33072254
     14.65000000	      0.83745799	      3.01017742	      8.51144122	     -0.04521836	      0.85899610	      0.00572138	      0.52954629	     -5.84601044	    -15.20977037	    -91.56394140	     -4.59897657	    -12.45057431	      0.00000000	     20.22355292	     10.51987594	      2.53201953	    -49.21345577	     31.31744042	      1.77690091	      0.00000000	    -16.55110819	     -2.79295785	     -5.89065793
     14.66000000	      0.55032799	      2.57107527	      7.95093822	     -0.04663311	      0.85891961	      0.00685001	      3.14210579	     -5.55857459	    -14.55453508	    -92.57333966	     -2.79103947	    -12.75891269	      0.00000000	     18.77318353	      9.72690965	      2.38121891	    -48.90015727	     32.70256162	      2.10773803	      0.00000000	    -16.28575314	     -2.47497608	     -6.43148671
     14.67000000	      0.29422749	      2.13462424	      7.35189364	     -0.04848999	      0.86021112	      0.00767164	      5.76284969	     -5.23450308	    -13.89190520	    -93.00109056	     -1.50628587	    -12.82423102	      0.00000000	     17.07954571	      8.93144989	      2.19537969	    -48.02352771	     33.68148699	      2.38182619	      0.00000000	    -16.12346472	     -2.04019481	     -6.99047002
     14.68000000	      0.04815059	      1.59962007	      6.68657394	     -0.05081070	      0.86325962	      0.00842760	      8.37668411	     -4.73957950	    -13.19584721	    -92.74763087	     -0.34471339	    -12.76895781	      0.00000000	     15.21429973	      7.98655868	      1.92012726	    -46.61888249	     34.05127262	      2.67697514	      0.00000000	    -16.06780433	     -1.39638273	     -7.56414169
     14.69000000	     -0.23739351	      0.99062777	      5.97349480	     -0.05298039	      0.86736331	      0.00924576	     10.86339420	     -4.11897720	    -12.52062618	    -91.85957843	      1.01292086	    -12.03262340	      0.00000000	     13.27102908	      6.92819565	      1.47274681	    -44.94444538	     33.91540164	      3.09163861	      0.00000000	    -15.99967025	     -0.66321170	     -8.22885094
     14.70000000	     -0.75299004	      0.23107865	      5.25439001	     -0.05475656	      0.87238673	      0.01049574	     13.44977399	     -3.15190467	    -11.87951817	    -90.26770115	      2.35773737	    -11.16335546	      0.00000000	     11.42443124	      5.64105214	      0.81931527	    -42.91596426	     33.06918909	      3.50366262	      0.00000000	    -15.57359244	      0.19860236	     -8.86966577
     14.71000000	     -1.49006416	     -0.50005630	      4.44755306	     -0.05599371	      0.87808037	      0.01191190	     16.02466528	     -2.13411186	    -11.22357355	    -88.01610898	      3.78537380	    -10.37364465	      0.00000000	      9.64801333	      4.39486186	      0.06965000	    -40.56286882	     31.54731736	      4.02603756	      0.00000000	    -14.84795813	      1.00358896	     -9.47663447
     14.72000000	     -2.24797320	     -1.16023127	      3.64450140	     -0.05648578	      0.88486354	      0.01333820	     18.26402878	     -1.12528616	    -10.68405047	    -85.05317847	      5.12829547	     -9.86134065	      0.00000000	      7.70069390	      3.24191829	     -0.77803036	    -37.81461051	     28.95208600	      4.31018970	      0.00000000	    -14.02666705	      1.77951543	    -10.11263842
     14.73000000	     -2.86203319	     -1.76697132	      2.76976651	     -0.05664040	      0.89241912	      0.01473916	     20.10215668	     -0.06845722	    -10.10042464	    -81.47268782	      6.15577966	     -9.02478056	      0.00000000	      5.50339083	      2.15136508	     -1.84992087	    -34.88157877	     25.75264444	      4.80425619	      0.00000000	    -13.35659331	      2.52652149	    -10.72066462
     14.74000000	     -3.32984836	     -2.30019611	      2.02001675	     -0.05614511	      0.90022932	      0.01624900	     21.42191885	      0.98309336	     -9.63564905	    -77.36649827	      6.82550336	     -8.53039582	      0.00000000	      3.17533505	      1.13094657	     -3.10464834	    -31.96470927	     22.15113228	      5.74731411	      0.00000000	    -12.76170726	      3.20842733	    -11.45821956
     14.75000000	     -3.63700072	     -2.75896868	      1.39798930	     -0.05519197	      0.90855228	      0.01773958	     22.25376446	      2.01903324	     -9.24378303	    -72.67562806	      7.04590721	     -8.26582638	      0.00000000	      0.70182840	      0.17330513	     -4.50853560	    -29.02386127	     18.14362276	      7.29596310	      0.00000000	    -12.30794091	      3.80611054	    -12.20364253
